# xmcd CD database file
#
# Track frame offsets:
#	150
#	34124
#	65517
#	94276
#	128795
#	162744
#	189637
#	218259
#	241043
#	266031
#	283862
#
# Disc length: 4011 seconds
#
# Revision: 0
# Processed by: cddbd v1.5.2PL0 Copyright (c) Steve Scherf et al.
# Submitted via: CDex 1.70beta2
#
DISCID=a10fa90b
DTITLE=Anne Wolf - Moon@Noon 
DYEAR=2012
DGENRE=Jazz
TTITLE0=Babu, Buba and Seedy
TTITLE1=Caravan
TTITLE2=D'ao￻t
TTITLE3=The dolphin
TTITLE4=Misterios do cora￧aO
TTITLE5=Moon at noon
TTITLE6=Bernie's Tune
TTITLE7=12  to 14
TTITLE8=Renouveau
TTITLE9=Choro para nao chorar
TTITLE10=Le chemin de Pierre
EXTD=YEAR: 2012
EXTT0=
EXTT1=
EXTT2=
EXTT3=
EXTT4=
EXTT5=
EXTT6=
EXTT7=
EXTT8=
EXTT9=
EXTT10=
PLAYORDER=
